<?xml version="1.0" standalone="no"?>
<!DOCTYPE svg PUBLIC "-//W3C//DTD SVG 20010904//EN"
 "http://www.w3.org/TR/2001/REC-SVG-20010904/DTD/svg10.dtd">
<svg version="1.0" xmlns="http://www.w3.org/2000/svg"
 width="251.000000pt" height="279.000000pt" viewBox="0 0 251.000000 279.000000"
 preserveAspectRatio="xMidYMid meet">

<g transform="translate(0.000000,279.000000) scale(0.100000,-0.100000)"
fill="#000000" stroke="none">
<path d="M1336 2686 c-73 -31 -144 -99 -182 -175 -26 -50 -29 -66 -29 -151 0
-82 4 -103 27 -152 55 -119 166 -194 297 -202 31 -2 41 -2 24 1 -50 7 -39 18
19 20 36 1 48 -1 38 -7 -34 -21 37 -9 90 16 62 29 102 62 93 77 -3 6 -2 7 4 4
26 -16 86 89 103 181 20 113 -14 223 -94 305 -68 70 -140 101 -246 105 -72 2
-94 -1 -144 -22z m19 -16 c-3 -5 -12 -10 -19 -10 -7 0 -33 -14 -57 -32 -32
-22 -39 -25 -24 -9 30 34 117 78 100 51z m280 -10 c3 -5 1 -10 -4 -10 -6 0
-11 5 -11 10 0 6 2 10 4 10 3 0 8 -4 11 -10z m-40 -44 c169 -77 219 -304 99
-444 -19 -22 -62 -54 -96 -71 -193 -97 -412 41 -410 258 1 138 78 239 212 275
66 19 127 13 195 -18z m131 -28 c27 -28 64 -89 64 -103 -1 -5 -10 8 -22 29
-11 22 -43 62 -72 90 -28 28 -37 41 -21 29 17 -12 40 -32 51 -45z m-518 -25
c-9 -10 -25 -36 -36 -58 -12 -22 -21 -34 -22 -27 0 19 54 102 68 102 3 0 -2
-8 -10 -17z m601 -152 c1 -35 -5 -22 -12 24 -5 28 -4 34 3 20 5 -11 9 -31 9
-44z m-662 27 c-3 -8 -6 -5 -6 6 -1 11 2 17 5 13 3 -3 4 -12 1 -19z m-4 -118
c2 -43 1 -66 -4 -55 -4 11 -8 49 -8 85 1 82 6 68 12 -30z m664 -34 c-7 -42
-45 -131 -53 -124 -3 3 4 23 16 44 11 22 23 56 26 77 4 20 9 37 12 37 2 0 2
-15 -1 -34z m-598 -136 c24 -33 24 -34 2 -15 -13 11 -32 37 -42 57 -23 45 -25
65 -2 23 9 -16 28 -46 42 -65z m67 -68 c-4 -3 -14 2 -24 12 -16 18 -16 18 6 6
13 -6 21 -14 18 -18z m50 -28 c18 -14 18 -14 -6 -3 -31 14 -36 19 -24 19 6 0
19 -7 30 -16z m39 -14 c3 -5 1 -10 -4 -10 -6 0 -11 5 -11 10 0 6 2 10 4 10 3
0 8 -4 11 -10z"/>
<path d="M1440 2570 c0 -36 -4 -50 -14 -50 -23 0 -66 -59 -66 -89 0 -41 36
-80 97 -108 40 -17 54 -28 51 -41 -4 -23 -49 -27 -86 -8 -29 15 -31 15 -47
-11 -22 -33 -11 -54 34 -67 26 -7 31 -14 31 -38 0 -26 -3 -29 -22 -22 -89 27
-147 88 -168 174 -13 54 -7 96 21 151 20 40 76 94 108 104 23 7 29 45 8 45
-36 0 -123 -82 -153 -145 -49 -104 -22 -233 67 -308 43 -38 119 -67 171 -67
27 0 28 2 28 45 0 34 4 47 18 52 9 3 29 17 45 31 21 20 27 35 27 67 0 49 -17
68 -93 105 -28 14 -53 31 -55 38 -7 21 40 31 77 16 18 -8 35 -14 36 -14 8 0
26 61 20 70 -3 5 -22 17 -41 25 -24 10 -34 20 -34 36 0 19 4 21 33 15 88 -17
167 -122 167 -220 0 -28 -9 -69 -19 -91 -19 -43 -85 -109 -120 -120 -12 -3
-21 -15 -21 -26 0 -24 1 -24 60 6 54 28 89 67 121 140 69 156 -62 354 -233
355 l-48 0 0 -50z"/>
<path d="M2085 2299 c3 -5 -1 -6 -9 -3 -10 4 -27 -6 -45 -24 -17 -16 -33 -27
-36 -23 -4 3 -6 2 -5 -4 4 -20 0 -36 -9 -31 -5 3 -17 -6 -26 -21 -19 -28 -28
-184 -12 -206 5 -7 6 -3 2 11 -9 33 1 27 14 -8 7 -22 7 -29 -1 -24 -6 4 -2 -8
8 -25 22 -38 65 -72 94 -74 11 -1 20 -5 20 -9 0 -4 7 -8 15 -8 8 0 15 -5 15
-10 0 -7 7 -7 20 0 11 6 26 7 33 3 20 -13 68 -11 74 3 2 7 11 10 19 7 18 -7
97 44 89 58 -4 5 -1 8 7 7 7 -2 14 7 16 20 2 13 8 20 14 16 7 -5 9 -1 5 9 -3
10 -2 17 3 17 5 0 6 7 3 17 -4 11 -3 14 5 9 8 -5 10 2 5 25 -4 23 -3 30 5 25
8 -5 12 2 12 19 0 16 -4 24 -11 20 -7 -5 -10 3 -8 21 1 16 1 38 0 49 -1 16 -3
17 -10 6 -7 -11 -11 -6 -16 20 -6 35 -60 98 -72 85 -3 -3 -13 3 -23 13 -14 17
-30 20 -108 20 -54 0 -90 -4 -87 -10z m194 -57 c106 -65 123 -218 35 -306 -39
-39 -88 -58 -147 -58 -166 2 -255 202 -145 328 69 79 166 92 257 36z m-273
-323 c17 -18 22 -28 12 -24 -14 6 -55 55 -45 55 2 0 16 -14 33 -31z"/>
<path d="M2150 2229 c0 -21 -8 -37 -26 -51 -20 -16 -24 -28 -22 -56 3 -31 10
-40 48 -62 25 -15 44 -31 43 -36 -3 -14 -43 -17 -59 -3 -12 10 -17 8 -29 -7
-20 -27 -19 -30 15 -44 18 -8 30 -20 30 -31 0 -23 -2 -23 -43 -5 -115 49 -122
213 -11 278 35 21 44 38 20 38 -25 0 -81 -46 -103 -85 -63 -110 7 -251 135
-271 41 -6 42 -6 42 21 0 20 10 37 31 55 53 44 41 93 -33 131 -21 11 -38 23
-38 28 0 15 23 19 50 9 19 -7 27 -5 37 8 19 26 17 31 -17 43 -39 13 -42 46 -4
37 42 -11 82 -46 99 -88 30 -75 12 -134 -56 -190 -47 -40 -48 -59 -2 -35 51
27 85 74 97 136 18 99 -74 211 -174 211 -27 0 -30 -3 -30 -31z"/>
<path d="M1922 2075 c0 -16 2 -22 5 -12 2 9 2 23 0 30 -3 6 -5 -1 -5 -18z"/>
<path d="M809 1904 c-147 -38 -318 -55 -547 -53 l-207 1 2 -180 c9 -785 283
-1344 776 -1589 l76 -37 43 19 c92 41 292 175 278 187 -3 3 -30 19 -62 36 -44
24 -59 28 -67 19 -5 -7 -50 -34 -99 -60 l-89 -47 -59 26 c-184 81 -372 272
-479 486 -116 233 -195 633 -183 928 l3 75 160 -3 c174 -4 359 14 482 47 71
18 73 18 154 -1 l81 -19 52 34 c28 19 73 44 100 56 27 11 47 23 45 25 -2 2
-53 11 -113 21 -60 9 -141 25 -180 36 -39 10 -73 18 -76 17 -3 0 -44 -11 -91
-24z"/>
<path d="M1485 1819 c-262 -40 -485 -206 -595 -440 -96 -205 -96 -463 0 -668
213 -454 802 -593 1191 -281 123 99 206 219 263 379 28 81 30 94 30 236 0 138
-2 157 -28 230 -93 269 -292 460 -549 525 -94 23 -231 32 -312 19z m320 -49
c208 -65 382 -211 469 -393 52 -111 67 -172 73 -297 8 -182 -32 -323 -138
-475 -165 -239 -474 -359 -767 -299 -45 9 -119 36 -179 65 -86 41 -115 62
-186 131 -230 227 -296 537 -176 829 100 245 314 413 589 463 61 11 247 -3
315 -24z"/>
<path d="M1470 1773 c-14 -2 -54 -13 -90 -25 -302 -96 -502 -354 -517 -668
-20 -425 306 -770 729 -770 122 0 219 21 323 70 196 91 340 265 396 477 29
107 29 269 0 376 -70 265 -292 476 -560 533 -61 13 -223 17 -281 7z m335 -130
c189 -68 337 -218 396 -403 27 -83 36 -238 19 -322 -25 -129 -106 -268 -204
-350 -73 -60 -122 -89 -211 -125 -64 -25 -81 -27 -205 -27 -122 0 -142 3 -209
27 -304 110 -481 422 -416 732 48 230 233 422 467 485 107 29 254 22 363 -17z"/>
<path d="M1530 1527 l0 -105 -33 -11 c-48 -16 -107 -69 -128 -115 -27 -60 -25
-139 6 -191 30 -51 49 -65 190 -135 93 -47 110 -59 113 -81 8 -68 -83 -81
-190 -26 l-67 35 -39 -57 c-21 -31 -42 -61 -46 -68 -9 -16 71 -70 137 -92 l52
-18 3 -56 c4 -67 2 -67 -91 -36 -83 27 -146 69 -207 136 -228 249 -151 644
152 786 l68 32 0 43 c0 40 -2 43 -22 37 -55 -15 -154 -71 -208 -116 -113 -94
-182 -225 -201 -381 -23 -182 35 -345 170 -478 116 -115 247 -170 409 -170
l72 0 0 103 0 104 40 12 c89 26 153 118 152 217 -1 87 -46 146 -151 194 -154
70 -176 84 -179 112 -7 62 88 77 184 28 32 -16 59 -28 60 -27 1 1 18 34 38 74
l36 72 -28 20 c-15 10 -55 28 -87 39 l-60 20 -3 57 c-3 51 -1 56 15 51 10 -3
32 -8 48 -12 141 -33 271 -153 331 -306 92 -234 -19 -508 -252 -623 -73 -36
-74 -37 -74 -76 0 -21 4 -39 10 -39 27 0 124 45 179 83 116 81 212 224 241
359 17 76 8 237 -17 309 -42 123 -140 246 -250 312 -84 51 -174 78 -280 84
l-93 6 0 -106z"/>
</g>
</svg>
